# xmcd
#
# Track frame offsets:
#	150
#	22162
#	40419
#	60759
#	82520
#	101160
#	118581
#	143059
#	163197
#	183537
#	202992
#	225255
#
# Disc length: 3287 seconds
#
# Revision: 0
# Processed by: cddbd v1.4PL0 Copyright (c) Steve Scherf et al.
# Submitted via: dBpowerAMP V4.0
#
DISCID=920cd50c
DTITLE=SP Balu - Osi Manasa II
DYEAR=1900
DGENRE=Blues
TTITLE0=Suryavamsham - Chukkalanni
TTITLE1=Pelli Pusthakam - Ammukutti Ammukutti
TTITLE2=Khadi No. 786 - Guvva Gorinkatho
TTITLE3=Raja Vikramarka - Eraroi
TTITLE4=Neti Siddhartha - Neeve Kada Naa Sweetu Figaru
TTITLE5=Pelli - Jabilamma Neeku Antha Kopamaa
TTITLE6=Priya O Priya - Priya O Priya
TTITLE7=Shubhakankshalu - Gundeninda Gudi Gantalu
TTITLE8=Chandralekha - Sahasame Seyyaraa Dimbhaka
TTITLE9=Ganesh - Siri Siri Muvvalu
TTITLE10=Aavida Maa Aavide - Intikeladam Padavammo
TTITLE11=Suswagatham - E Swapnalokala
EXTD=
EXTT0=
EXTT1=
EXTT2=
EXTT3=
EXTT4=
EXTT5=
EXTT6=
EXTT7=
EXTT8=
EXTT9=
EXTT10=
EXTT11=
PLAYORDER=
